<mxfile host="app.diagrams.net" agent="Mozilla/5.0 (Windows NT 10.0; Win64; x64) AppleWebKit/537.36 (KHTML, like Gecko) Chrome/129.0.0.0 Safari/537.36 Edg/129.0.0.0" version="24.7.16">
  <diagram name="Page-1" id="Dnxth_gKGoHQhTlkixaQ">
    <mxGraphModel dx="786" dy="457" grid="0" gridSize="10" guides="1" tooltips="0" connect="1" arrows="0" fold="1" page="0" pageScale="1" pageWidth="850" pageHeight="1100" math="0" shadow="0">
      <root>
        <mxCell id="0" />
        <mxCell id="1" parent="0" />
        <mxCell id="gxb3YtXBHtRbfXQBGh1x-2" value="" style="rounded=1;whiteSpace=wrap;html=1;" vertex="1" parent="1">
          <mxGeometry x="63" y="85" width="722" height="344" as="geometry" />
        </mxCell>
        <mxCell id="gxb3YtXBHtRbfXQBGh1x-3" value="HuggingFace" style="rounded=1;whiteSpace=wrap;html=1;" vertex="1" parent="1">
          <mxGeometry x="96" y="130" width="111" height="37" as="geometry" />
        </mxCell>
        <mxCell id="gxb3YtXBHtRbfXQBGh1x-4" value="NeMo" style="rounded=1;whiteSpace=wrap;html=1;" vertex="1" parent="1">
          <mxGeometry x="96" y="193" width="111" height="37" as="geometry" />
        </mxCell>
        <mxCell id="gxb3YtXBHtRbfXQBGh1x-5" value="AMMO" style="rounded=1;whiteSpace=wrap;html=1;" vertex="1" parent="1">
          <mxGeometry x="98" y="256" width="111" height="37" as="geometry" />
        </mxCell>
        <mxCell id="gxb3YtXBHtRbfXQBGh1x-6" value="JAX" style="rounded=1;whiteSpace=wrap;html=1;" vertex="1" parent="1">
          <mxGeometry x="98" y="319" width="111" height="37" as="geometry" />
        </mxCell>
      </root>
    </mxGraphModel>
  </diagram>
</mxfile>
